<svg width="100" height="100" viewBox="0 0 100 100" fill="none" xmlns="http://www.w3.org/2000/svg">
<path d="M77.1653 34.5144C86.1527 34.5144 93.4383 27.2288 93.4383 18.2415C93.4383 9.25416 86.1527 1.96851 77.1653 1.96851C68.178 1.96851 60.8924 9.25416 60.8924 18.2415C60.8924 27.2288 68.178 34.5144 77.1653 34.5144Z" fill="#323E45"/>
<path d="M39.6497 18.9491H23.6465V84.8726H39.6497V18.9491Z" fill="#D54239"/>
<path d="M6.48886 18.9491V33.758H56.8074V18.9491H6.48886Z" fill="#D54239"/>
<path d="M59.0398 37.035H43.0366V84.8726H59.0398V37.035Z" fill="#2F93C7"/>
<path d="M86.1098 84.8726H70.1067L53.9252 60.9538L69.148 37.035H84.5478L70.1067 60.9538L86.1098 84.8726Z" fill="#2F93C7"/>
<path d="M94.2436 33.4092H84.3583L82.6672 27.5175H70.6449L68.9522 33.4092H59.9587L69.9331 0.912415H84.2643L94.2436 33.4092ZM71.8917 23.1035H81.3312L76.6114 6.66879L71.8917 23.1035Z" fill="white"/>
<path d="M94.2713 20.2627L84.0782 1.07617L83.2584 1.51172L93.4514 20.6983L94.2713 20.2627Z" fill="white"/>
<path d="M94.2675 33.3821V20.223H93.4714V33.3821H94.2675Z" fill="white"/>
<path d="M92.1704 29.6067V16.4475H91.3741V29.6067H92.1704Z" fill="white"/>
<path d="M89.7819 25.4665V12.3073H88.9857V25.4665H89.7819Z" fill="white"/>
<path d="M87.871 21.9634V8.80414H87.0748V21.9634H87.871Z" fill="white"/>
<path fill-rule="evenodd" clip-rule="evenodd" d="M50 0.420044C52.3152 0.420044 54.5933 0.578734 56.8242 0.88583V4.86377C54.5979 4.53003 52.3192 4.35705 50 4.35705C40.4299 4.35705 31.5478 7.30236 24.2106 12.336H17.7559C26.4249 4.90748 37.6885 0.420044 50 0.420044ZM95.6429 50C95.6429 45.4864 94.9878 41.1256 93.7673 37.0079H97.8602C98.9816 41.1487 99.5799 45.5045 99.5799 50C99.5799 58.928 97.2202 67.3048 93.0903 74.5407H88.4909C93.0188 67.454 95.6429 59.0335 95.6429 50ZM74.1882 88.7139C67.1753 93.1048 58.8841 95.6429 50 95.6429C24.7921 95.6429 4.35705 75.2079 4.35705 50C4.35705 46.6675 4.71421 43.4183 5.39234 40.2887H1.37072C0.747078 43.4292 0.420044 46.6764 0.420044 50C0.420044 77.3823 22.6177 99.58 50 99.58C61.7202 99.58 72.4907 95.5133 80.9772 88.7139H74.1882Z" fill="#323E45"/>
</svg>
